<svg xmlns="http://www.w3.org/2000/svg" width="20" height="21" viewBox="0 0 20 21" fill="none"><rect y="0.449951" width="20" height="20" rx="10" fill="#DEF4EE"></rect><path d="M15.5859 6.46558C15.5078 6.38745 15.4199 6.3256 15.3223 6.28003C15.2246 6.23446 15.1172 6.21167 15 6.21167C14.8828 6.21167 14.7754 6.23446 14.6777 6.28003C14.5801 6.3256 14.4922 6.38745 14.4141 6.46558L8.20312 12.6765L5.58594 10.0593C5.50781 9.9812 5.41992 9.92261 5.32227 9.88354C5.22461 9.84448 5.11719 9.82495 5 9.82495C4.76562 9.82495 4.5638 9.90633 4.39453 10.0691C4.22526 10.2319 4.14062 10.4304 4.14062 10.6648C4.14062 10.795 4.16667 10.9122 4.21875 11.0164C4.27083 11.1205 4.33594 11.2117 4.41406 11.2898L7.61719 14.4929C7.68229 14.558 7.76693 14.6134 7.87109 14.6589C7.97526 14.7045 8.08594 14.7273 8.20312 14.7273C8.32031 14.7273 8.42773 14.7045 8.52539 14.6589C8.62305 14.6134 8.71094 14.558 8.78906 14.4929L15.5859 7.67651C15.6771 7.59839 15.7454 7.50724 15.791 7.40308C15.8366 7.29891 15.8594 7.18823 15.8594 7.07104C15.8594 6.95386 15.8366 6.83993 15.791 6.72925C15.7454 6.61857 15.6771 6.53068 15.5859 6.46558Z" fill="#45C4A0"></path></svg>