<svg xmlns="http://www.w3.org/2000/svg" width="60" height="61" viewBox="0 0 60 61" fill="none"><rect y="0.23999" width="60" height="60" rx="8" fill="#FBE7F3"></rect><path d="M25.9375 40.2607C24.645 40.2591 23.406 39.7449 22.4921 38.8311C21.5782 37.9172 21.0641 36.6781 21.0625 35.3857C21.0596 34.8863 21.1371 34.3898 21.292 33.9151C21.3352 33.778 21.4052 33.6509 21.498 33.5411C21.5909 33.4314 21.7046 33.3413 21.8326 33.2759C21.9607 33.2106 22.1004 33.1715 22.2438 33.1607C22.3871 33.15 22.5311 33.1679 22.6674 33.2134C22.8038 33.2589 22.9297 33.3311 23.0378 33.4258C23.1459 33.5205 23.2341 33.6358 23.2973 33.7649C23.3604 33.894 23.3972 34.0344 23.4055 34.1779C23.4138 34.3214 23.3934 34.4651 23.3456 34.6006C23.2645 34.8543 23.2251 35.1194 23.2288 35.3857C23.2292 36.0482 23.4725 36.6875 23.9128 37.1825C24.353 37.6776 24.9595 37.994 25.6173 38.0719C26.2752 38.1498 26.9388 37.9836 27.4824 37.605C28.026 37.2263 28.4119 36.6615 28.5669 36.0174C28.6383 35.7439 28.8138 35.5091 29.0559 35.3631C29.298 35.2171 29.5876 35.1715 29.8628 35.2361C30.1381 35.3006 30.3772 35.4702 30.5292 35.7085C30.6812 35.9469 30.734 36.2352 30.6764 36.512C30.4279 37.5813 29.8237 38.5344 28.9628 39.2155C28.1018 39.8965 27.0352 40.265 25.9375 40.2607Z" fill="#E668B3"></path><path d="M42.1875 40.5317C42.1112 40.5315 42.0353 40.5206 41.962 40.4992L17.587 33.4559C17.4182 33.4071 17.2698 33.3049 17.1639 33.1647C17.0581 33.0244 17.0006 32.8536 17 32.6779V27.8029C17.0001 27.6268 17.0574 27.4556 17.1633 27.3149C17.2692 27.1742 17.4179 27.0718 17.587 27.0229L41.962 19.9826C42.0828 19.9477 42.2101 19.9413 42.3338 19.964C42.4574 19.9866 42.5742 20.0376 42.6748 20.113C42.7754 20.1884 42.8572 20.2862 42.9136 20.3985C42.97 20.5109 42.9996 20.6348 43 20.7606V39.7223C43 39.8484 42.9706 39.9728 42.9142 40.0856C42.8578 40.1985 42.7759 40.2966 42.675 40.3723C42.5337 40.4761 42.3629 40.532 42.1875 40.5317Z" fill="#E668B3"></path><path d="M41.9163 41.3444C41.6289 41.3444 41.3533 41.2302 41.1501 41.027C40.9468 40.8238 40.8327 40.5481 40.8327 40.2607V20.2194C40.8327 19.932 40.9468 19.6564 41.1501 19.4531C41.3533 19.2499 41.6289 19.1357 41.9163 19.1357C42.2037 19.1357 42.4794 19.2499 42.6826 19.4531C42.8858 19.6564 43 19.932 43 20.2194V40.2607C43.0001 40.4031 42.9722 40.5441 42.9178 40.6756C42.8634 40.8071 42.7836 40.9267 42.6829 41.0273C42.5822 41.128 42.4627 41.2078 42.3312 41.2622C42.1997 41.3166 42.0587 41.3445 41.9163 41.3444ZM18.0837 34.8444C17.9413 34.8445 17.8003 34.8166 17.6688 34.7622C17.5373 34.7078 17.4178 34.628 17.3171 34.5273C17.2164 34.4267 17.1366 34.3071 17.0822 34.1756C17.0278 34.0441 16.9999 33.9031 17 33.7607V26.7214C17 26.434 17.1142 26.1584 17.3174 25.9552C17.5206 25.7519 17.7963 25.6378 18.0837 25.6378C18.3711 25.6378 18.6467 25.7519 18.8499 25.9552C19.0532 26.1584 19.1673 26.434 19.1673 26.7214V33.7607C19.1673 34.0482 19.0532 34.3238 18.8499 34.527C18.6467 34.7302 18.3711 34.8444 18.0837 34.8444Z" fill="#E668B3"></path></svg>