<svg width="12" height="12" viewBox="0 0 12 12" fill="none" xmlns="http://www.w3.org/2000/svg">
<g clip-path="url(#clip0)">
<path d="M11.4545 0H7.09089C6.78965 0 6.54543 0.244219 6.54543 0.545461C6.54543 0.846703 6.78965 1.09092 7.09089 1.09092H10.1377L4.52341 6.70524C4.31038 6.91826 4.31038 7.26359 4.52341 7.47661C4.62988 7.58311 4.76948 7.63636 4.90907 7.63636C5.04867 7.63636 5.18828 7.58313 5.29478 7.47659L10.9091 1.8623V4.9091C10.9091 5.21034 11.1533 5.45456 11.4546 5.45456C11.7558 5.45456 12 5.21034 12 4.9091V0.545461C12 0.244219 11.7558 0 11.4545 0Z" fill="white"/>
<path d="M9.27272 5.45454C8.97148 5.45454 8.72726 5.69876 8.72726 6V10.9091H1.0909V3.27272H6C6.30124 3.27272 6.54546 3.0285 6.54546 2.72726C6.54546 2.42602 6.30124 2.18182 6 2.18182H0.545461C0.244219 2.18182 0 2.42604 0 2.72728V11.4546C0 11.7558 0.244219 12 0.545461 12H9.27274C9.57398 12 9.8182 11.7558 9.8182 11.4545V6C9.81818 5.69876 9.57396 5.45454 9.27272 5.45454Z" fill="white"/>
</g>
<defs>
<clipPath id="clip0">
<rect width="12" height="12" fill="white"/>
</clipPath>
</defs>
</svg>
