<svg width="28" height="28" viewBox="0 0 28 28" fill="none" xmlns="http://www.w3.org/2000/svg">
<g clip-path="url(#clip0)">
<path d="M13.9996 19.1889C13.2168 19.1889 12.5607 19.8451 12.5607 20.6279C12.5607 21.4107 13.2168 22.0668 13.9996 22.0668C14.7536 22.0668 15.4386 21.4107 15.4041 20.6624C15.4386 19.8393 14.7882 19.1889 13.9996 19.1889Z" fill="white"/>
<path d="M27.3186 24.2886C28.2223 22.7287 28.228 20.8696 27.3301 19.3155L18.3165 3.70571C17.4243 2.13437 15.8127 1.20193 14.0054 1.20193C12.198 1.20193 10.5864 2.14013 9.69426 3.69996L0.669113 19.327C-0.228797 20.8984 -0.223042 22.769 0.68638 24.3289C1.58429 25.8714 3.19017 26.7981 4.98599 26.7981H22.9902C24.7918 26.7981 26.4092 25.8599 27.3186 24.2886ZM25.3616 23.1604C24.8609 24.0238 23.9745 24.5361 22.9845 24.5361H4.98023C4.00174 24.5361 3.1211 24.0353 2.63185 23.1892C2.13685 22.3316 2.13109 21.307 2.6261 20.4437L11.6512 4.82234C12.1405 3.96473 13.0154 3.45821 14.0054 3.45821C14.9896 3.45821 15.8703 3.97048 16.3595 4.8281L25.3789 20.4494C25.8624 21.2898 25.8566 22.3028 25.3616 23.1604Z" fill="white"/>
<path d="M13.6428 9.08742C12.9578 9.28311 12.5319 9.90474 12.5319 10.6588C12.5664 11.1135 12.5952 11.5739 12.6297 12.0286C12.7276 13.7612 12.8254 15.4591 12.9233 17.1916C12.9578 17.7787 13.4125 18.2047 13.9996 18.2047C14.5867 18.2047 15.0472 17.7499 15.076 17.1571C15.076 16.8002 15.076 16.4721 15.1105 16.1095C15.1738 14.9987 15.2429 13.8878 15.3062 12.7769C15.3408 12.0574 15.4041 11.3379 15.4386 10.6185C15.4386 10.3595 15.4041 10.1292 15.3062 9.89899C15.0127 9.25433 14.3277 8.92625 13.6428 9.08742Z" fill="white"/>
</g>
<defs>
<clipPath id="clip0">
<rect width="28" height="28" fill="white"/>
</clipPath>
</defs>
</svg>
